<?xml version="1.0" encoding="UTF-8"?>
<svg xmlns="http://www.w3.org/2000/svg" viewBox="0 0 1024 1024">
  <path fill="#000000" fill-rule="evenodd" d="M430.0 1003.0C391.8 994.9 366.7 965.3 360.9 921.5C358.7 904.8 361.8 874.9 366.5 867.8C376.6 852.5 399.9 856.2 405.1 873.8C406.1 877.2 406.1 880.2 405.2 888.3C399.7 936.0 416.0 961.0 452.8 961.0C491.2 961.0 519.1 935.6 530.5 890.2C536.9 864.5 538.7 817.9 534.6 784.0C530.4 749.1 521.2 701.7 517.7 697.2C517.0 696.3 512.4 696.0 500.8 696.0C469.5 696.0 443.6 700.7 418.5 710.9C408.6 715.0 406.0 715.7 406.0 714.2C406.0 713.8 405.3 704.0 404.5 692.5C402.9 667.8 401.6 670.5 417.4 665.4C467.7 649.1 522.2 648.2 576.9 662.5C589.4 665.8 608.7 672.4 610.2 673.9C610.8 674.5 607.1 716.1 606.4 717.0C606.1 717.2 601.1 715.7 595.2 713.6C582.2 708.9 569.2 705.0 566.9 705.0C565.3 705.0 565.3 705.5 566.6 710.8C583.1 779.5 585.6 854.0 573.1 902.2C558.5 958.4 522.8 995.1 474.2 1003.5C462.4 1005.6 440.8 1005.3 430.0 1003.0ZM858.0 785.9C838.9 783.8 804.7 771.2 798.6 763.9C790.3 754.1 791.2 741.4 800.8 732.8C808.8 725.6 815.1 725.5 831.1 732.3C857.3 743.5 875.6 745.4 890.6 738.6C915.9 727.0 926.1 686.7 911.7 655.7C889.2 607.4 802.0 570.1 693.8 562.5L684.2 561.8L682.0 566.6C677.6 576.6 670.1 600.9 667.4 614.0C664.9 626.3 664.6 629.5 664.6 650.2C664.5 664.7 664.1 673.0 663.5 673.0C663.0 673.0 653.2 670.9 641.8 668.3L621.0 663.6L620.4 660.2C617.7 645.9 624.3 601.6 633.2 574.0C644.8 538.1 670.0 490.6 687.7 471.1L691.5 467.0L711.3 474.9C722.2 479.3 731.4 483.0 731.6 483.3C731.9 483.6 728.6 488.2 724.4 493.6C715.7 504.7 706.9 518.0 707.5 519.0C707.8 519.4 711.9 520.0 716.7 520.4C728.8 521.3 750.9 524.5 766.5 527.6C890.6 552.0 959.2 605.9 961.7 681.0C964.0 747.4 919.3 792.6 858.0 785.9ZM125.7 700.0C72.4 690.3 35.9 655.4 26.4 605.3C24.4 594.6 25.0 574.8 27.5 565.0C35.6 534.2 61.3 509.9 98.3 498.1C115.7 492.6 127.5 490.5 132.8 491.9C146.9 495.6 153.9 512.0 146.6 524.4C143.0 530.6 138.1 533.6 128.5 535.6C99.8 541.3 80.7 552.7 72.8 568.7C63.6 587.4 70.9 616.1 89.4 634.6C120.8 666.1 180.2 665.1 258.3 631.8C274.5 624.9 302.0 611.3 314.6 603.9C323.3 598.9 345.0 585.0 345.0 584.6C345.0 584.4 343.5 578.7 341.6 571.9C333.4 542.0 319.0 513.4 300.6 490.6C297.5 486.8 295.0 483.3 295.0 483.0C295.0 482.6 304.1 478.6 315.2 474.2L335.5 466.1L338.8 469.8C344.1 475.6 356.2 494.4 362.9 507.0C384.5 548.2 397.7 604.3 396.8 651.4L396.5 667.3L377.0 671.6C350.2 677.6 353.2 679.2 353.7 659.2C354.0 650.0 353.8 640.1 353.3 637.2L352.5 632.0L343.0 637.8C293.6 668.2 237.8 690.6 190.4 699.1C172.8 702.3 140.6 702.7 125.7 700.0ZM670.4 454.6C626.0 439.6 580.8 407.3 545.6 365.6C537.2 355.7 523.2 336.2 520.1 330.3C519.0 328.2 520.1 326.6 533.7 310.9C544.4 298.4 548.7 294.1 549.3 295.1C559.6 312.2 573.7 332.9 575.0 333.0C575.3 333.0 578.8 326.4 582.9 318.2C631.4 220.5 696.7 157.2 759.9 146.6C847.2 131.9 913.4 215.0 872.1 287.2C863.9 301.6 845.8 322.7 837.6 327.5C820.8 337.4 801.0 323.1 805.1 304.0C806.0 299.6 807.5 297.5 816.2 288.2C834.8 268.2 841.0 256.1 841.0 239.7C841.0 208.0 804.7 182.6 768.4 189.1C721.1 197.4 666.9 250.8 626.9 328.5C617.5 346.6 609.0 365.2 609.0 367.4C609.0 369.2 626.1 382.8 639.0 391.2C657.4 403.3 684.0 414.9 702.3 419.0C705.6 419.8 708.0 420.8 707.8 421.5C706.7 425.6 684.3 458.0 682.5 458.0C681.4 458.0 676.0 456.4 670.4 454.6ZM323.6 439.0C317.0 429.1 311.9 420.8 312.2 420.5C312.4 420.2 317.2 418.7 322.9 417.0C335.0 413.4 354.0 406.0 354.0 405.0C354.0 404.5 348.7 399.8 342.2 394.4C233.7 303.9 190.1 212.9 222.4 144.4C249.4 87.3 315.4 64.7 362.9 96.4C380.2 107.9 405.0 138.0 407.9 151.0C411.7 167.8 393.3 182.4 377.5 175.1C372.7 172.9 370.7 170.8 364.2 161.0C347.6 135.8 334.5 126.0 316.5 125.2C285.2 123.8 256.0 155.3 256.0 190.4C256.1 241.6 307.0 312.7 387.8 374.3C398.6 382.5 396.6 382.7 411.4 371.6C436.8 352.6 459.0 327.0 472.0 301.8C473.9 298.0 475.8 295.0 476.1 295.0C476.4 295.0 483.1 302.5 490.9 311.6C502.5 325.1 505.1 328.7 504.6 330.5C503.7 333.9 489.8 354.3 482.1 363.4C449.1 402.6 400.0 436.2 351.6 452.9C345.1 455.2 338.8 457.0 337.6 457.0C336.0 457.0 332.8 452.9 323.6 439.0Z"/>
</svg>
